<?xml version="1.0" encoding="UTF-8" standalone="no"?>
<!DOCTYPE svg PUBLIC "-//W3C//DTD SVG 1.1//EN" "http://www.w3.org/Graphics/SVG/1.1/DTD/svg11.dtd">
<svg width="100%" height="100%" viewBox="0 0 256 256" version="1.1" xmlns="http://www.w3.org/2000/svg" xmlns:xlink="http://www.w3.org/1999/xlink" xml:space="preserve" xmlns:serif="http://www.serif.com/" style="fill-rule:evenodd;clip-rule:evenodd;stroke-linejoin:round;stroke-miterlimit:2;">
    <g transform="matrix(2.32422,0,0,2.32422,-21.8604,-21.7171)">
        <circle cx="64.478" cy="64.416" r="55.072" style="fill:rgb(246,246,246);fill-opacity:0;"/>
        <path d="M64.478,9.344C94.873,9.344 119.55,34.021 119.55,64.416C119.55,94.811 94.873,119.489 64.478,119.489C34.083,119.489 9.405,94.811 9.405,64.416C9.405,34.021 34.083,9.344 64.478,9.344ZM64.478,11.137C35.072,11.137 11.198,35.01 11.198,64.416C11.198,93.822 35.072,117.696 64.478,117.696C93.884,117.696 117.757,93.822 117.757,64.416C117.757,35.01 93.884,11.137 64.478,11.137Z" style="fill:rgb(124,124,124);"/>
    </g>
    <g transform="matrix(0.974346,0,0,0.974346,-10.1715,-12.9436)">
        <circle cx="141.809" cy="78.969" r="32.843" style="fill:rgb(246,246,246);fill-opacity:0;"/>
        <path d="M141.809,46.127C159.936,46.127 174.652,60.843 174.652,78.969C174.652,97.096 159.936,111.812 141.809,111.812C123.683,111.812 108.967,97.096 108.967,78.969C108.967,60.843 123.683,46.127 141.809,46.127ZM141.809,50.403C126.043,50.403 113.243,63.203 113.243,78.969C113.243,94.736 126.043,107.536 141.809,107.536C157.576,107.536 170.376,94.736 170.376,78.969C170.376,63.203 157.576,50.403 141.809,50.403Z" style="fill:rgb(124,124,124);"/>
    </g>
    <g transform="matrix(0.836569,0,0,1.25694,19.1467,-27.8168)">
        <path d="M206.622,123.966L206.622,174.883C206.622,188.934 189.482,200.342 168.37,200.342L91.867,200.342C70.756,200.342 53.616,188.934 53.616,174.883L53.616,123.966C53.616,109.915 70.756,98.507 91.867,98.507L168.37,98.507C189.482,98.507 206.622,109.915 206.622,123.966Z" style="fill:rgb(124,124,124);fill-opacity:0;"/>
        <path d="M206.622,123.966L206.622,174.883C206.622,188.934 189.482,200.342 168.37,200.342L91.867,200.342C70.756,200.342 53.616,188.934 53.616,174.883L53.616,123.966C53.616,109.915 70.756,98.507 91.867,98.507L168.37,98.507C189.482,98.507 206.622,109.915 206.622,123.966ZM201.641,123.966C201.641,111.744 186.733,101.822 168.37,101.822L91.867,101.822C73.505,101.822 58.596,111.744 58.596,123.966L58.596,174.883C58.596,187.105 73.505,197.027 91.867,197.027L168.37,197.027C186.733,197.027 201.641,187.105 201.641,174.883L201.641,123.966Z" style="fill:rgb(124,124,124);"/>
    </g>
</svg>
